<svg height="512pt" viewBox="0 -8 512 512" width="512pt" xmlns="http://www.w3.org/2000/svg"><path d="m447.503906 278.078125c-.34375-3.582031-3.121094-6.457031-6.667968-7.054687l-27.363282-4.597657c-4.160156-22.207031-12.824218-42.808593-25.121094-60.773437l16.0625-22.550782c2.089844-2.933593 2.019532-6.929687-.269531-9.707031-3.789062-4.589843-7.808593-9.054687-12.105469-13.355469-4.296874-4.296874-8.761718-8.316406-13.355468-12.105468-2.773438-2.289063-6.773438-2.359375-9.703125-.269532l-22.554688 16.0625c-17.960937-12.296874-38.566406-20.960937-60.773437-25.117187l-4.597656-27.363281c-.59375-3.550782-3.46875-6.328125-7.050782-6.671875-5.929687-.566407-11.929687-.882813-18.003906-.882813-6.078125 0-12.078125.316406-18.003906.882813-3.582032.34375-6.457032 3.121093-7.054688 6.671875l-4.597656 27.363281c-22.207031 4.15625-42.808594 12.820313-60.773438 25.117187l-22.550781-16.0625c-2.933593-2.089843-6.929687-2.019531-9.707031.269532-4.589844 3.789062-9.054688 7.808594-13.351562 12.105468-4.296876 4.296876-8.320313 8.761719-12.109376 13.355469-2.289062 2.777344-2.359374 6.773438-.269531 9.707031l16.0625 22.550782c-12.296875 17.964844-20.960937 38.566406-25.117187 60.773437l-27.363282 4.597657c-3.550781.59375-6.328124 3.472656-6.671874 7.054687-.566407 5.925781-.882813 11.925781-.882813 18.003906 0 6.074219.316406 12.074219.882813 18.003907.34375 3.578124 3.121093 6.457031 6.671874 7.050781l27.363282 4.597656c4.15625 22.207031 12.820312 42.8125 25.117187 60.773437l-16.0625 22.554688c-2.089843 2.929688-2.019531 6.925781.269531 9.703125 3.789063 4.59375 7.8125 9.058594 12.109376 13.351563 4.296874 4.296874 8.757812 8.320312 13.351562 12.109374 2.777344 2.289063 6.773438 2.359376 9.707031.269532l22.550781-16.0625c17.964844 12.296875 38.566407 20.960937 60.773438 25.117187l4.597656 27.363281c.597656 3.550782 3.472656 6.328126 7.054688 6.671876 5.925781.566406 11.925781.882812 18.003906.882812 6.074219 0 12.074219-.316406 18.003906-.882812 3.582032-.34375 6.457032-3.121094 7.050782-6.671876l4.597656-27.363281c22.207031-4.15625 42.8125-12.820312 60.773437-25.117187l22.554688 16.0625c2.929687 2.089844 6.929687 2.019531 9.703125-.269532 4.59375-3.792968 9.058594-7.8125 13.355468-12.109374 4.296876-4.292969 8.316407-8.757813 12.105469-13.351563 2.289063-2.777344 2.359375-6.773437.269531-9.703125l-16.0625-22.554688c12.296876-17.960937 20.960938-38.566406 25.121094-60.773437l27.363282-4.597656c3.546874-.59375 6.324218-3.472657 6.667968-7.050781.570313-5.929688.882813-11.929688.882813-18.003907 0-6.078125-.3125-12.078125-.882813-18.003906zm-191.503906 106.179687c-48.699219 0-88.175781-39.476562-88.175781-88.175781s39.476562-88.179687 88.175781-88.179687 88.175781 39.480468 88.175781 88.179687-39.476562 88.175781-88.175781 88.175781zm0 0" fill="#b6b1b7"/><path d="m256 175.839844c-66.40625 0-120.242188 53.832031-120.242188 120.242187 0 66.40625 53.835938 120.242188 120.242188 120.242188s120.242188-53.835938 120.242188-120.242188c0-66.410156-53.835938-120.242187-120.242188-120.242187zm0 208.417968c-48.699219 0-88.175781-39.476562-88.175781-88.175781s39.476562-88.179687 88.175781-88.179687 88.175781 39.480468 88.175781 88.179687-39.476562 88.175781-88.175781 88.175781zm0 0" fill="#9b959d"/><path d="m424.339844 320.128906c7.421875 0 14.65625-.8125 21.644531-2.292968.789063-1.097657 1.386719-2.339844 1.519531-3.75.570313-5.929688.882813-11.929688.882813-18.003907 0-6.078125-.3125-12.078125-.882813-18.003906-.339844-3.582031-3.121094-6.457031-6.667968-7.054687l-27.363282-4.597657c-4.160156-22.207031-12.824218-42.808593-25.121094-60.773437l16.0625-22.550782c2.089844-2.933593 2.023438-6.929687-.269531-9.707031-3.789062-4.589843-7.808593-9.054687-12.105469-13.355469-4.296874-4.296874-8.761718-8.316406-13.355468-12.105468-2.773438-2.289063-6.773438-2.359375-9.703125-.269532l-22.550781 16.0625c-17.964844-12.296874-38.566407-20.960937-60.773438-25.117187l-4.597656-27.363281c-.597656-3.550782-3.472656-6.328125-7.054688-6.671875-5.925781-.566407-11.925781-.882813-18.003906-.882813-6.074219 0-12.074219.316406-18.003906.882813-3.578125.34375-6.457032 3.121093-7.050782 6.671875l-4.597656 27.363281c-22.207031 4.15625-42.8125 12.820313-60.773437 25.117187l-22.554688-16.0625c-2.929687-2.089843-6.925781-2.019531-9.703125.269532-4.59375 3.789062-9.054687 7.808594-13.351562 12.105468-4.300782 4.296876-8.320313 8.761719-12.109375 13.355469-2.289063 2.777344-2.359375 6.773438-.269531 9.707031l16.0625 22.550782c-12.292969 17.964844-20.957032 38.566406-25.117188 60.773437l-27.363281 4.597657c-3.550781.59375-6.328125 3.472656-6.671875 7.054687-.566406 5.925781-.882813 11.925781-.882813 18.003906 0 5.003907.257813 9.941407.652344 14.84375 14.695313 5.878907 30.675781 9.203125 47.445313 9.203125h59.519531c-2.167969-7.652344-3.40625-15.699218-3.40625-24.046875 0-48.699219 39.476562-88.179687 88.175781-88.179687s88.179688 39.480468 88.179688 88.179687c0 8.347657-1.238282 16.394531-3.40625 24.046875zm0 0" fill="#9b959d"/><path d="m373.828125 320.128906c1.578125-7.769531 2.414063-15.8125 2.414063-24.046875 0-66.410156-53.835938-120.242187-120.242188-120.242187s-120.242188 53.832031-120.242188 120.242187c0 8.234375.835938 16.277344 2.414063 24.046875h33.054687c-2.164062-7.652344-3.402343-15.699218-3.402343-24.046875 0-48.699219 39.476562-88.179687 88.175781-88.179687s88.175781 39.480468 88.175781 88.179687c0 8.347657-1.238281 16.394531-3.402343 24.046875zm0 0" fill="#857e87"/><path d="m448.203125 139.371094c.070313-1.203125.183594-2.394532.183594-3.613282 0-35.417968-28.710938-64.128906-64.128907-64.128906-10.175781 0-19.761718 2.433594-28.304687 6.652344-25.148437-42.328125-71.195313-70.78125-124-70.78125-56.804687 0-105.796875 32.90625-129.335937 80.621094-53.289063 4.617187-95.117188 49.265625-95.117188 103.75 0 57.554687 46.65625 104.210937 104.210938 104.210937h312.628906c44.269531 0 80.160156-35.890625 80.160156-80.160156 0-35.960937-23.679688-66.390625-56.296875-76.550781zm0 0" fill="#edf4ff"/><path d="m71.628906 167.824219c0-27.550781 10.675782-53.539063 30.0625-73.179688 2.144532-2.171875 3.886719-6.132812.921875-6.523437-53.285156 4.617187-95.113281 49.265625-95.113281 103.75 0 57.554687 46.65625 104.210937 104.210938 104.210937h312.628906c22.410156 0 42.652344-9.222656 57.199218-24.050781h-305.699218c-57.460938 0-104.210938-46.746094-104.210938-104.207031zm0 0" fill="#dbeaff"/><path d="m512 215.921875c0-19.074219-6.019531-37.207031-17.410156-52.441406-9.851563-13.179688-23.449219-23.457031-38.722656-29.371094-.878907-38.738281-32.664063-69.980469-71.609376-69.980469-8.734374 0-17.238281 1.574219-25.371093 4.691406-12.949219-19.773437-30.394531-36.378906-50.785157-48.28125-23.023437-13.4375-49.359374-20.539062-76.148437-20.539062-28.859375 0-56.929687 8.15625-81.171875 23.589844-22.378906 14.246094-40.632812 34.070312-52.996094 57.5-26.140625 3.257812-50.234375 15.628906-68.222656 35.121094-19.0625 20.65625-29.5625 47.527343-29.5625 75.660156 0 41.265625 22.492188 77.375 55.863281 96.71875.253907 7.910156.640625 20.730468 1.164063 26.210937.664062 6.921875 5.964844 12.566407 12.894531 13.730469l22.285156 3.746094c4.238281 19.34375 11.738281 37.492187 22.347657 54.074218l-13.078126 18.359376c-4.078124 5.71875-3.832031 13.464843.59375 18.824218 4.054688 4.917969 8.289063 9.585938 12.589844 13.886719 4.292969 4.296875 8.964844 8.53125 13.882813 12.585937 5.363281 4.429688 13.105469 4.675782 18.828125.597657l18.359375-13.078125c16.582031 10.609375 34.726562 18.109375 54.074219 22.347656l3.742187 22.285156c1.164063 6.925782 6.8125 12.230469 13.734375 12.890625 6.351562.609375 12.648438.917969 18.71875.917969s12.371094-.308594 18.71875-.917969c6.921875-.660156 12.570312-5.964843 13.734375-12.890625l3.742187-22.285156c19.347657-4.238281 37.492188-11.738281 54.074219-22.347656l18.359375 13.078125c5.722656 4.078125 13.464844 3.832031 18.828125-.59375 4.917969-4.058594 9.589844-8.292969 13.886719-12.589844s8.53125-8.96875 12.585938-13.882813c4.425781-5.363281 4.671874-13.105468.59375-18.828124l-13.078126-18.359376c10.609376-16.582031 18.109376-34.730468 22.347657-54.074218l22.285156-3.742188c6.925781-1.164062 12.230469-6.8125 12.894531-13.734375.550782-5.785156.84375-11.519531.894532-17.085937 32.804687-12.691406 56.132812-44.566406 56.132812-81.792969zm-87.660156 72.660156h-272.550782c-4.140624 0-7.5 3.355469-7.5 7.5 0 4.140625 3.359376 7.5 7.5 7.5h8.828126c3.835937 49.265625 45.148437 88.175781 95.382812 88.175781s91.546875-38.910156 95.382812-88.175781h72.957032c5.613281 0 11.105468-.539062 16.429687-1.550781-.128906 3.726562-.367187 7.515625-.730469 11.335938-.015624.148437-.199218.332031-.449218.375l-27.363282 4.597656c-3.101562.519531-5.550781 2.925781-6.128906 6.015625-3.925781 20.964843-11.980468 40.449219-23.9375 57.917969-1.773437 2.59375-1.742187 6.023437.082032 8.585937l16.0625 22.554687c.148437.207032.148437.464844.054687.578126-3.753906 4.546874-7.664063 8.863281-11.625 12.824218-3.960937 3.957032-8.273437 7.871094-12.824219 11.625-.113281.09375-.375.09375-.578125-.050781l-22.554687-16.066406c-2.5625-1.824219-5.992188-1.855469-8.585938-.078125-17.464844 11.957031-36.953125 20.007812-57.917968 23.933594-3.089844.582031-5.496094 3.027343-6.015626 6.128906l-4.597656 27.367187c-.042968.25-.226562.429688-.371094.445313-5.875.5625-11.691406.847656-17.289062.847656s-11.414062-.285156-17.289062-.847656c-.148438-.015625-.332032-.195313-.371094-.445313l-4.601563-27.367187c-.519531-3.101563-2.921875-5.546875-6.015625-6.128906-20.964844-3.925782-40.449218-11.976563-57.914062-23.933594-2.597656-1.777344-6.027344-1.746094-8.589844.078125l-22.550781 16.066406c-.207031.144531-.464844.144531-.582031.050781-4.550782-3.753906-8.863282-7.664062-12.824219-11.625-3.960938-3.960937-7.871094-8.277344-11.625-12.824218-.089844-.113282-.09375-.375.054687-.582032l16.0625-22.550781c1.824219-2.5625 1.859375-5.992187.082032-8.589844-11.957032-17.464843-20.011719-36.949219-23.9375-57.914062-.578126-3.09375-3.027344-5.496094-6.128907-6.015625l-27.363281-4.597656c-.25-.042969-.433594-.226563-.445312-.375-.46875-4.882813-.738282-11.949219-.8125-17.410157 12.578124 4.917969 26.257812 7.621094 40.558593 7.621094h8.015625c4.140625 0 7.5-3.355469 7.5-7.5 0-4.140625-3.359375-7.5-7.5-7.5h-8.015625c-53.324219.003906-96.707031-43.382813-96.707031-96.707031 0-24.351563 9.085938-47.609375 25.585938-65.488282 16.402343-17.773437 38.660156-28.710937 62.675781-30.789062 2.613281-.226562 4.917969-1.804688 6.082031-4.15625 11.140625-22.589844 28.257812-41.675781 49.492188-55.195312 21.832031-13.894532 47.113281-21.242188 73.117187-21.242188 24.136719 0 47.855469 6.394531 68.589844 18.496094 20.105469 11.730468 37.035156 28.542968 48.960937 48.613281 2 3.367187 6.253906 4.628906 9.765625 2.898437 7.902344-3.902343 16.308594-5.878906 24.988281-5.878906 31.226563 0 56.628907 25.402344 56.628907 56.628906 0 .605469-.046875 1.300782-.097657 2.039063-.023437.386719-.050781.773437-.070312 1.160156-.191406 3.433594 1.972656 6.554688 5.257812 7.578125 30.519532 9.503906 51.023438 37.390625 51.023438 69.386719 0 40.0625-32.597656 72.660156-72.660156 72.660156zm-88.023438 15c-3.796875 40.980469-38.363281 73.175781-80.316406 73.175781-41.957031 0-76.519531-32.195312-80.316406-73.175781zm0 0"/><path d="m138.085938 320.921875c-3.992188 1.101563-6.335938 5.230469-5.234376 9.226563 15.226563 55.152343 65.867188 93.675781 123.148438 93.675781s107.921875-38.519531 123.144531-93.675781c1.101563-3.996094-1.238281-8.125-5.234375-9.226563-3.988281-1.101563-8.121094 1.238281-9.222656 5.234375-13.4375 48.671875-58.128906 82.667969-108.6875 82.667969s-95.253906-33.996094-108.6875-82.667969c-1.101562-3.996094-5.234375-6.335938-9.226562-5.234375zm0 0"/><path d="m222.980469 229.429688-14.308594-40.074219c-1.09375-3.054688-4.183594-4.972657-7.25-4.984375h-56.738281l19.488281-54.574219c.550781-1.539063 2.015625-2.570313 3.648437-2.570313 1.632813 0 3.101563 1.03125 3.652344 2.570313l11.621094 32.546875c1.394531 3.902344 5.6875 5.933594 9.585938 4.539062 3.902343-1.390624 5.933593-5.683593 4.542968-9.582031l-11.625-32.546875c-2.675781-7.492187-9.820312-12.527344-17.777344-12.527344-7.957031 0-15.097656 5.035157-17.773437 12.527344l-37.386719 104.675782c-1.390625 3.898437.640625 8.191406 4.542969 9.585937.832031.296875 1.683594.4375 2.523437.4375 3.078126 0 5.964844-1.914063 7.0625-4.980469l12.535157-35.101562h56.996093l12.535157 35.101562c1.09375 3.066406 3.984375 4.980469 7.0625 4.980469.839843 0 1.691406-.140625 2.523437-.4375 3.902344-1.394531 5.933594-5.6875 4.539063-9.585937zm0 0"/><path d="m281.550781 112.226562h-28.054687c-8.558594 0-15.515625 6.960938-15.515625 15.515626v104.210937c0 4.140625 3.355469 7.5 7.5 7.5 4.140625 0 7.5-3.359375 7.5-7.5v-104.210937c0-.285157.230469-.515626.515625-.515626h28.054687c15.753907 0 28.574219 12.816407 28.574219 28.570313 0 15.757813-12.820312 28.574219-28.574219 28.574219h-4.007812c-4.140625 0-7.5 3.359375-7.5 7.5s3.359375 7.5 7.5 7.5h4.007812c24.027344 0 43.574219-19.546875 43.574219-43.574219 0-24.023437-19.546875-43.570313-43.574219-43.570313zm0 0"/><path d="m352.191406 112.226562c-4.140625 0-7.5 3.355469-7.5 7.5v112.226563c0 4.140625 3.359375 7.5 7.5 7.5 4.144532 0 7.5-3.359375 7.5-7.5v-112.226563c0-4.140624-3.355468-7.5-7.5-7.5zm0 0"/></svg>